<svg xmlns="http://www.w3.org/2000/svg" version="1.1" xmlns:xlink="http://www.w3.org/1999/xlink" xmlns:svgjs="http://svgjs.dev/svgjs" width="2000" height="1247" viewBox="0 0 2000 1247"><g transform="matrix(1,0,0,1,-1.2121212121212466,0.504858299595071)"><svg viewBox="0 0 396 247" data-background-color="#ffffff" preserveAspectRatio="xMidYMid meet" height="1247" width="2000" xmlns="http://www.w3.org/2000/svg" xmlns:xlink="http://www.w3.org/1999/xlink"><g id="tight-bounds" transform="matrix(1,0,0,1,0.2400000000000091,-0.09999999999999432)"><svg viewBox="0 0 395.52 247.2" height="247.2" width="395.52"><g><svg></svg></g><g><svg viewBox="0 0 395.52 247.2" height="247.2" width="395.52"><g transform="matrix(1,0,0,1,75.54432,88.10166970954357)"><svg viewBox="0 0 244.43135999999998 70.99666058091285" height="70.99666058091285" width="244.43135999999998"><g><svg viewBox="0 0 244.43135999999998 70.99666058091285" height="70.99666058091285" width="244.43135999999998"><g><svg viewBox="0 0 244.43135999999998 70.99666058091285" height="70.99666058091285" width="244.43135999999998"><g id="textblocktransform"><svg viewBox="0 0 244.43135999999998 70.99666058091285" height="70.99666058091285" width="244.43135999999998" id="textblock"><g><svg viewBox="0 0 244.43135999999998 70.99666058091285" height="70.99666058091285" width="244.43135999999998"><g transform="matrix(1,0,0,1,0,0)"><svg width="244.43135999999998" viewBox="1.7999999999999998 -28 96.39 28" height="70.99666058091285" data-palette-color="#000000"><path d="M16.5-4L18-4Q18.2-3.2 18.2-2L18.2-2Q18.2-0.85 18 0L18 0 14 0Q13.8-0.85 13.8-2L13.8-2Q13.8-3.2 14-4L14-4 12.5-4Q12.3-4.85 12.3-6L12.3-6Q12.3-7.2 12.5-8L12.5-8 11-8Q10.8-8.85 10.8-10L10.8-10Q10.8-11.2 11-12L11-12 6-12Q6.2-11.2 6.2-10L6.2-10Q6.2-8.85 6-8L6-8Q6.2-7.2 6.2-6L6.2-6Q6.2-4.85 6-4L6-4Q6.2-3.2 6.2-2L6.2-2Q6.2-0.85 6 0L6 0 2 0Q1.8-0.85 1.8-2L1.8-2Q1.8-3.2 2-4L2-4Q1.8-4.85 1.8-6L1.8-6Q1.8-7.2 2-8L2-8Q1.8-8.85 1.8-10L1.8-10Q1.8-11.2 2-12L2-12Q1.8-12.85 1.8-14L1.8-14Q1.8-15.2 2-16L2-16Q1.8-16.85 1.8-18L1.8-18Q1.8-19.2 2-20L2-20Q1.8-20.85 1.8-22L1.8-22Q1.8-23.2 2-24L2-24Q1.8-24.85 1.8-26L1.8-26Q1.8-27.2 2-28L2-28 16-28Q16.2-27.2 16.2-26L16.2-26Q16.2-24.85 16-24L16-24 18-24Q18.2-23.2 18.2-22L18.2-22Q18.2-20.85 18-20L18-20 17-20Q17.2-19.2 17.2-18L17.2-18Q17.2-16.85 17-16L17-16 14-16Q14.2-15.2 14.2-14L14.2-14Q14.2-12.85 14-12L14-12 15-12Q15.2-11.2 15.2-10L15.2-10Q15.2-8.85 15-8L15-8 16.5-8Q16.7-7.2 16.7-6L16.7-6Q16.7-4.85 16.5-4L16.5-4ZM13-16Q12.8-16.85 12.8-18L12.8-18Q12.8-19.2 13-20L13-20Q12.8-20.85 12.8-22L12.8-22Q12.8-23.2 13-24L13-24 6-24Q6.2-23.2 6.2-22L6.2-22Q6.2-20.85 6-20L6-20Q6.2-19.2 6.2-18L6.2-18Q6.2-16.85 6-16L6-16 13-16ZM38-16Q38.2-15.2 38.2-14L38.2-14Q38.2-12.85 38-12L38-12Q38.2-11.2 38.2-10L38.2-10Q38.2-8.85 38-8L38-8 36.5-8Q36.7-7.2 36.7-6L36.7-6Q36.7-4.85 36.5-4L36.5-4 34-4Q34.2-3.2 34.2-2L34.2-2Q34.2-0.85 34 0L34 0 26 0Q25.8-0.85 25.8-2L25.8-2Q25.8-3.2 26-4L26-4 23.5-4Q23.3-4.85 23.3-6L23.3-6Q23.3-7.2 23.5-8L23.5-8 22-8Q21.8-8.85 21.8-10L21.8-10Q21.8-11.2 22-12L22-12Q21.8-12.85 21.8-14L21.8-14Q21.8-15.2 22-16L22-16Q21.8-16.85 21.8-18L21.8-18Q21.8-19.2 22-20L22-20 23.5-20Q23.3-20.85 23.3-22L23.3-22Q23.3-23.2 23.5-24L23.5-24 26-24Q25.8-24.85 25.8-26L25.8-26Q25.8-27.2 26-28L26-28 34-28Q34.2-27.2 34.2-26L34.2-26Q34.2-24.85 34-24L34-24 36.5-24Q36.7-23.2 36.7-22L36.7-22Q36.7-20.85 36.5-20L36.5-20 38-20Q38.2-19.2 38.2-18L38.2-18Q38.2-16.85 38-16L38-16ZM34-8Q33.8-8.85 33.8-10L33.8-10Q33.8-11.2 34-12L34-12Q33.8-12.85 33.8-14L33.8-14Q33.8-15.2 34-16L34-16Q33.8-16.85 33.8-18L33.8-18Q33.8-19.2 34-20L34-20 32.5-20Q32.3-20.85 32.3-22L32.3-22Q32.3-23.2 32.5-24L32.5-24 27.5-24Q27.7-23.2 27.7-22L27.7-22Q27.7-20.85 27.5-20L27.5-20 26-20Q26.2-19.2 26.2-18L26.2-18Q26.2-16.85 26-16L26-16Q26.2-15.2 26.2-14L26.2-14Q26.2-12.85 26-12L26-12Q26.2-11.2 26.2-10L26.2-10Q26.2-8.85 26-8L26-8 27.5-8Q27.7-7.2 27.7-6L27.7-6Q27.7-4.85 27.5-4L27.5-4 32.5-4Q32.3-4.85 32.3-6L32.3-6Q32.3-7.2 32.5-8L32.5-8 34-8ZM58.2-22Q58.2-20.85 58-20L58-20Q58.2-19.2 58.2-18L58.2-18Q58.2-16.85 58-16L58-16 56-16Q56.2-15.2 56.2-14L56.2-14Q56.2-12.85 56-12L56-12 46-12Q46.2-11.2 46.2-10L46.2-10Q46.2-8.85 46-8L46-8Q46.2-7.2 46.2-6L46.2-6Q46.2-4.85 46-4L46-4Q46.2-3.2 46.2-2L46.2-2Q46.2-0.85 46 0L46 0 42 0Q41.8-0.85 41.8-2L41.8-2Q41.8-3.2 42-4L42-4Q41.8-4.85 41.8-6L41.8-6Q41.8-7.2 42-8L42-8Q41.8-8.85 41.8-10L41.8-10Q41.8-11.2 42-12L42-12Q41.8-12.85 41.8-14L41.8-14Q41.8-15.2 42-16L42-16Q41.8-16.85 41.8-18L41.8-18Q41.8-19.2 42-20L42-20Q41.8-20.85 41.8-22L41.8-22Q41.8-23.2 42-24L42-24Q41.8-24.85 41.8-26L41.8-26Q41.8-27.2 42-28L42-28 56-28Q56.2-27.2 56.2-26L56.2-26Q56.2-24.85 56-24L56-24 58-24Q58.2-23.2 58.2-22L58.2-22ZM54-16Q53.8-16.85 53.8-18L53.8-18Q53.8-19.2 54-20L54-20Q53.8-20.85 53.8-22L53.8-22Q53.8-23.2 54-24L54-24 46-24Q46.2-23.2 46.2-22L46.2-22Q46.2-20.85 46-20L46-20Q46.2-19.2 46.2-18L46.2-18Q46.2-16.85 46-16L46-16 54-16ZM77.99-16Q78.19-15.2 78.19-14L78.19-14Q78.19-12.85 77.99-12L77.99-12Q78.19-11.2 78.19-10L78.19-10Q78.19-8.85 77.99-8L77.99-8 76.49-8Q76.69-7.2 76.69-6L76.69-6Q76.69-4.85 76.49-4L76.49-4 73.99-4Q74.19-3.2 74.19-2L74.19-2Q74.19-0.85 73.99 0L73.99 0 65.99 0Q65.79-0.85 65.79-2L65.79-2Q65.79-3.2 65.99-4L65.99-4 63.49-4Q63.29-4.85 63.29-6L63.29-6Q63.29-7.2 63.49-8L63.49-8 61.99-8Q61.79-8.85 61.79-10L61.79-10Q61.79-11.2 61.99-12L61.99-12Q61.79-12.85 61.79-14L61.79-14Q61.79-15.2 61.99-16L61.99-16Q61.79-16.85 61.79-18L61.79-18Q61.79-19.2 61.99-20L61.99-20 63.49-20Q63.29-20.85 63.29-22L63.29-22Q63.29-23.2 63.49-24L63.49-24 65.99-24Q65.79-24.85 65.79-26L65.79-26Q65.79-27.2 65.99-28L65.99-28 73.99-28Q74.19-27.2 74.19-26L74.19-26Q74.19-24.85 73.99-24L73.99-24 76.49-24Q76.69-23.2 76.69-22L76.69-22Q76.69-20.85 76.49-20L76.49-20 77.99-20Q78.19-19.2 78.19-18L78.19-18Q78.19-16.85 77.99-16L77.99-16ZM73.99-8Q73.79-8.85 73.79-10L73.79-10Q73.79-11.2 73.99-12L73.99-12Q73.79-12.85 73.79-14L73.79-14Q73.79-15.2 73.99-16L73.99-16Q73.79-16.85 73.79-18L73.79-18Q73.79-19.2 73.99-20L73.99-20 72.49-20Q72.29-20.85 72.29-22L72.29-22Q72.29-23.2 72.49-24L72.49-24 67.49-24Q67.69-23.2 67.69-22L67.69-22Q67.69-20.85 67.49-20L67.49-20 65.99-20Q66.19-19.2 66.19-18L66.19-18Q66.19-16.85 65.99-16L65.99-16Q66.19-15.2 66.19-14L66.19-14Q66.19-12.85 65.99-12L65.99-12Q66.19-11.2 66.19-10L66.19-10Q66.19-8.85 65.99-8L65.99-8 67.49-8Q67.69-7.2 67.69-6L67.69-6Q67.69-4.85 67.49-4L67.49-4 72.49-4Q72.29-4.85 72.29-6L72.29-6Q72.29-7.2 72.49-8L72.49-8 73.99-8ZM97.99-24Q98.19-23.2 98.19-22L98.19-22Q98.19-20.85 97.99-20L97.99-20Q98.19-19.2 98.19-18L98.19-18Q98.19-16.85 97.99-16L97.99-16Q98.19-15.2 98.19-14L98.19-14Q98.19-12.85 97.99-12L97.99-12Q98.19-11.2 98.19-10L98.19-10Q98.19-8.85 97.99-8L97.99-8Q98.19-7.2 98.19-6L98.19-6Q98.19-4.85 97.99-4L97.99-4Q98.19-3.2 98.19-2L98.19-2Q98.19-0.85 97.99 0L97.99 0 93.99 0Q93.79-0.85 93.79-2L93.79-2Q93.79-3.2 93.99-4L93.99-4 91.49-4Q91.29-4.85 91.29-6L91.29-6Q91.29-7.2 91.49-8L91.49-8 89.99-8Q89.79-8.85 89.79-10L89.79-10Q89.79-11.2 89.99-12L89.99-12 87.99-12Q87.79-12.85 87.79-14L87.79-14Q87.79-15.2 87.99-16L87.99-16 85.99-16Q86.19-15.2 86.19-14L86.19-14Q86.19-12.85 85.99-12L85.99-12Q86.19-11.2 86.19-10L86.19-10Q86.19-8.85 85.99-8L85.99-8Q86.19-7.2 86.19-6L86.19-6Q86.19-4.85 85.99-4L85.99-4Q86.19-3.2 86.19-2L86.19-2Q86.19-0.85 85.99 0L85.99 0 81.99 0Q81.79-0.85 81.79-2L81.79-2Q81.79-3.2 81.99-4L81.99-4Q81.79-4.85 81.79-6L81.79-6Q81.79-7.2 81.99-8L81.99-8Q81.79-8.85 81.79-10L81.79-10Q81.79-11.2 81.99-12L81.99-12Q81.79-12.85 81.79-14L81.79-14Q81.79-15.2 81.99-16L81.99-16Q81.79-16.85 81.79-18L81.79-18Q81.79-19.2 81.99-20L81.99-20Q81.79-20.85 81.79-22L81.79-22Q81.79-23.2 81.99-24L81.99-24Q81.79-24.85 81.79-26L81.79-26Q81.79-27.2 81.99-28L81.99-28 86.99-28Q87.19-27.2 87.19-26L87.19-26Q87.19-24.85 86.99-24L86.99-24 88.49-24Q88.69-23.2 88.69-22L88.69-22Q88.69-20.85 88.49-20L88.49-20 89.99-20Q90.19-19.2 90.19-18L90.19-18Q90.19-16.85 89.99-16L89.99-16 91.99-16Q92.19-15.2 92.19-14L92.19-14Q92.19-12.85 91.99-12L91.99-12 93.99-12Q93.79-12.85 93.79-14L93.79-14Q93.79-15.2 93.99-16L93.99-16Q93.79-16.85 93.79-18L93.79-18Q93.79-19.2 93.99-20L93.99-20Q93.79-20.85 93.79-22L93.79-22Q93.79-23.2 93.99-24L93.99-24Q93.79-24.85 93.79-26L93.79-26Q93.79-27.2 93.99-28L93.99-28 97.99-28Q98.19-27.2 98.19-26L98.19-26Q98.19-24.85 97.99-24L97.99-24Z" opacity="1" transform="matrix(1,0,0,1,0,0)" fill="#ffffff" class="wordmark-text-0" data-fill-palette-color="primary" id="text-0"></path></svg></g></svg></g></svg></g></svg></g></svg></g></svg></g><path d="M206.487 82.102L206.487 25.362 10.012 25.362 10.012 221.838 206.487 221.838 206.487 165.098 200.085 165.098 200.085 215.435 16.415 215.435 16.415 31.765 200.085 31.765 200.085 82.102Z" fill="#ffffff" stroke="transparent" data-fill-palette-color="tertiary"></path></svg></g><defs></defs></svg><rect width="395.52" height="247.2" fill="none" stroke="none" visibility="hidden"></rect></g></svg></g></svg>